<svg xmlns="http://www.w3.org/2000/svg" viewBox="0 0 600 400" fill="none">
  <defs>
    <linearGradient id="fortunerBody" x1="0%" y1="0%" x2="100%" y2="100%">
      <stop offset="0%" style="stop-color:#94a3b8;stop-opacity:1" />
      <stop offset="100%" style="stop-color:#64748b;stop-opacity:1" />
    </linearGradient>
  </defs>
  
  <!-- Background -->
  <rect width="600" height="400" fill="#f1f5f9"/>
  
  <!-- Shadow -->
  <ellipse cx="300" cy="365" rx="230" ry="28" fill="#000000" opacity="0.15"/>
  
  <!-- Car Body (Large SUV) -->
  <path d="M 85 185 L 135 145 L 265 145 L 315 185 L 515 185 L 515 305 L 85 305 Z" fill="url(#fortunerBody)" stroke="#475569" stroke-width="2"/>
  
  <!-- Roof -->
  <path d="M 165 145 L 185 105 L 425 105 L 445 145 Z" fill="url(#fortunerBody)" stroke="#475569" stroke-width="2"/>
  
  <!-- Windows -->
  <path d="M 175 140 L 190 110 L 295 110 L 295 140 Z" fill="#60a5fa" opacity="0.5" stroke="#334155" stroke-width="1.5"/>
  <path d="M 305 140 L 305 110 L 420 110 L 440 140 Z" fill="#60a5fa" opacity="0.5" stroke="#334155" stroke-width="1.5"/>
  
  <!-- Doors -->
  <line x1="265" y1="155" x2="265" y2="305" stroke="#475569" stroke-width="2"/>
  <line x1="385" y1="155" x2="385" y2="305" stroke="#475569" stroke-width="2"/>
  
  <!-- Door Handles -->
  <rect x="245" y="235" width="20" height="7" rx="3" fill="#1e293b"/>
  <rect x="365" y="235" width="20" height="7" rx="3" fill="#1e293b"/>
  
  <!-- Headlights (Modern LED) -->
  <rect x="500" y="205" width="15" height="40" rx="3" fill="#e0f2fe" stroke="#0284c7" stroke-width="2"/>
  <rect x="503" y="210" width="9" height="12" rx="2" fill="#38bdf8"/>
  <rect x="503" y="228" width="9" height="12" rx="2" fill="#38bdf8"/>
  
  <!-- Taillights -->
  <rect x="85" y="205" width="13" height="45" rx="3" fill="#fca5a5" stroke="#dc2626" stroke-width="2"/>
  
  <!-- Wheels (Large) -->
  <circle cx="185" cy="305" r="52" fill="#0f172a"/>
  <circle cx="185" cy="305" r="40" fill="#334155"/>
  <circle cx="185" cy="305" r="22" fill="#64748b"/>
  <circle cx="185" cy="305" r="12" fill="#94a3b8"/>
  
  <circle cx="435" cy="305" r="52" fill="#0f172a"/>
  <circle cx="435" cy="305" r="40" fill="#334155"/>
  <circle cx="435" cy="305" r="22" fill="#64748b"/>
  <circle cx="435" cy="305" r="12" fill="#94a3b8"/>
  
  <!-- Wheel Spokes -->
  <line x1="185" y1="283" x2="185" y2="327" stroke="#0f172a" stroke-width="3"/>
  <line x1="163" y1="305" x2="207" y2="305" stroke="#0f172a" stroke-width="3"/>
  <line x1="435" y1="283" x2="435" y2="327" stroke="#0f172a" stroke-width="3"/>
  <line x1="413" y1="305" x2="457" y2="305" stroke="#0f172a" stroke-width="3"/>
  
  <!-- Grille -->
  <rect x="495" y="185" width="20" height="120" rx="3" fill="#334155"/>
  <line x1="498" y1="195" x2="512" y2="195" stroke="#64748b" stroke-width="2"/>
  <line x1="498" y1="210" x2="512" y2="210" stroke="#64748b" stroke-width="2"/>
  <line x1="498" y1="225" x2="512" y2="225" stroke="#64748b" stroke-width="2"/>
  <line x1="498" y1="240" x2="512" y2="240" stroke="#64748b" stroke-width="2"/>
  <line x1="498" y1="255" x2="512" y2="255" stroke="#64748b" stroke-width="2"/>
  <line x1="498" y1="270" x2="512" y2="270" stroke="#64748b" stroke-width="2"/>
  <line x1="498" y1="285" x2="512" y2="285" stroke="#64748b" stroke-width="2"/>
  <line x1="498" y1="300" x2="512" y2="300" stroke="#64748b" stroke-width="2"/>
  
  <!-- Side Mirror -->
  <ellipse cx="500" cy="165" rx="13" ry="9" fill="#475569" stroke="#334155" stroke-width="2"/>
  
  <!-- Roof Rack -->
  <rect x="175" y="100" width="260" height="5" rx="2" fill="#64748b"/>
  <rect x="195" y="95" width="5" height="10" rx="1" fill="#64748b"/>
  <rect x="300" y="95" width="5" height="10" rx="1" fill="#64748b"/>
  <rect x="405" y="95" width="5" height="10" rx="1" fill="#64748b"/>
  
  <!-- Badge -->
  <text x="310" y="275" font-size="14" font-weight="bold" fill="#1e293b" text-anchor="middle">FORTUNER VRZ</text>
</svg>
